<?xml version="1.0" standalone="no"?>
<!DOCTYPE svg PUBLIC "-//W3C//DTD SVG 20010904//EN"
 "http://www.w3.org/TR/2001/REC-SVG-20010904/DTD/svg10.dtd">
<svg version="1.0" xmlns="http://www.w3.org/2000/svg"
 width="280.000000pt" height="314.000000pt" viewBox="0 0 280.000000 314.000000"
 preserveAspectRatio="xMidYMid meet">

<g transform="translate(0.000000,314.000000) scale(0.100000,-0.100000)"
fill="#000000" stroke="none">
<path d="M736 2682 c-3 -6 15 -13 41 -17 88 -13 167 -66 204 -136 39 -76 41
-142 34 -914 -7 -806 -6 -800 -65 -914 -72 -137 -191 -211 -342 -211 l-64 0
-69 -70 c-46 -46 -66 -73 -59 -80 19 -19 149 -58 233 -71 325 -47 606 108 676
372 12 45 15 218 15 1043 l0 989 103 -6 c166 -10 278 -56 363 -150 51 -57 83
-114 110 -197 26 -82 33 -578 10 -684 -41 -182 -208 -326 -378 -326 -22 0 -38
-5 -38 -12 0 -15 174 -4 260 18 240 60 415 230 477 464 27 102 24 294 -6 390
-79 257 -249 423 -501 491 -81 21 -105 23 -541 27 -290 2 -459 0 -463 -6z"/>
</g>
</svg>
